M48
; DRILL file {KiCad 8.0.7} date 2025-01-08T22:05:29-0300
; FORMAT={-:-/ absolute / inch / decimal}
; #@! TF.CreationDate,2025-01-08T22:05:29-03:00
; #@! TF.GenerationSoftware,Kicad,Pcbnew,8.0.7
; #@! TF.FileFunction,MixedPlating,1,4
FMAT,2
INCH
; #@! TA.AperFunction,Plated,PTH,ViaDrill
T1C0.0118
; #@! TA.AperFunction,Plated,PTH,ViaDrill
T2C0.0157
; #@! TA.AperFunction,Plated,PTH,ComponentDrill
T3C0.0197
; #@! TA.AperFunction,Plated,PTH,ComponentDrill
T4C0.0315
; #@! TA.AperFunction,Plated,PTH,ComponentDrill
T5C0.0354
; #@! TA.AperFunction,Plated,PTH,ComponentDrill
T6C0.0394
; #@! TA.AperFunction,Plated,PTH,ComponentDrill
T7C0.0398
; #@! TA.AperFunction,Plated,PTH,ComponentDrill
T8C0.0423
; #@! TA.AperFunction,Plated,PTH,ComponentDrill
T9C0.0433
; #@! TA.AperFunction,Plated,PTH,ComponentDrill
T10C0.0512
%
G90
G05
T1
X2.95Y-3.55
X2.95Y-3.58
X3.34Y-2.88
X3.46Y-4.17
X3.6024Y-4.1732
X3.82Y-3.99
X3.82Y-4.17
X3.87Y-3.67
X3.88Y-4.08
X3.92Y-4.0807
X4.1Y-3.67
X4.33Y-3.67
X4.3307Y-4.3898
X4.545Y-4.525
X4.545Y-4.62
X4.545Y-4.67
X4.56Y-3.67
X4.685Y-4.4193
X4.685Y-4.7244
X4.9Y-4.42
X4.9Y-4.72
X5.01Y-3.7402
X5.01Y-3.7964
X5.02Y-4.37
X5.05Y-3.58
X5.06Y-3.82
X5.08Y-4.73
X5.11Y-3.85
X5.2296Y-4.18
X5.23Y-3.9
X5.26Y-4.03
X5.3Y-3.42
X5.32Y-4.3
X5.33Y-4.0
X5.35Y-3.62
X5.41Y-4.13
X5.44Y-3.6
X5.4626Y-3.7697
X5.52Y-3.92
X5.52Y-3.98
X5.52Y-4.02
X5.56Y-4.08
X5.585Y-4.005
X5.6Y-3.94
X5.6Y-4.74
X5.61Y-3.89
X5.61Y-4.1
X5.6385Y-3.7207
X5.64Y-3.42
X5.66Y-4.49
X5.74Y-4.62
X5.75Y-4.21
X5.78Y-3.96
X5.82Y-3.93
X5.87Y-3.58
X5.87Y-4.16
X5.9Y-3.74
X5.93Y-4.62
X5.98Y-3.42
T2
X3.16Y-2.78
X3.6319Y-3.5343
X3.7046Y-3.5925
T4
X2.8461Y-4.1007
X2.85Y-3.6811
X2.85Y-3.7811
X2.85Y-3.8811
X2.85Y-3.9811
X2.8546Y-2.9785
X2.8546Y-3.1753
X2.8684Y-2.7357
X2.8684Y-3.4407
X2.9257Y-4.2107
X2.9646Y-3.0757
X2.9646Y-3.1757
X2.9684Y-2.7357
X2.9684Y-3.4407
X3.0257Y-4.2107
X3.043Y-4.1007
X3.065Y-3.4406
X3.065Y-3.5406
X3.15Y-3.6811
X3.15Y-3.7811
X3.15Y-3.8811
X3.15Y-3.9811
X3.2009Y-3.0857
X3.2842Y-3.6804
X3.2842Y-3.7804
X3.2842Y-3.8804
X3.2842Y-3.9804
X3.3046Y-2.3046
X3.3046Y-2.4046
X3.3505Y-3.0857
X3.365Y-3.4406
X3.365Y-3.5406
X3.4511Y-2.1273
X3.4511Y-2.3242
X3.5511Y-2.1273
X3.5511Y-2.3242
X3.5842Y-3.6804
X3.5842Y-3.7804
X3.5842Y-3.8804
X3.5842Y-3.9804
X3.8407Y-2.7757
X3.8498Y-3.1861
X3.8498Y-3.4861
X3.8584Y-2.6557
X3.9407Y-2.7757
X3.9498Y-3.1861
X3.9498Y-3.4861
X3.9584Y-2.6557
X4.0707Y-2.7757
X4.0798Y-3.1861
X4.0798Y-3.4861
X4.0884Y-2.6557
X4.1707Y-2.7757
X4.1798Y-3.1861
X4.1798Y-3.4861
X4.1884Y-2.6557
X4.3007Y-2.7757
X4.3098Y-3.1861
X4.3098Y-3.4861
X4.3184Y-2.6557
X4.4007Y-2.7757
X4.4098Y-3.1861
X4.4098Y-3.4861
X4.4184Y-2.6557
X4.4511Y-2.1257
X4.4511Y-2.3226
X4.5307Y-2.7757
X4.5398Y-3.1861
X4.5398Y-3.4861
X4.5484Y-2.6557
X4.5511Y-2.1257
X4.5511Y-2.3226
X4.6307Y-2.7757
X4.6398Y-3.1861
X4.6398Y-3.4861
X4.6484Y-2.6557
X4.8102Y-3.1854
X4.8102Y-3.4854
X4.9102Y-3.1854
X4.9102Y-3.4854
X5.0096Y-2.7846
X5.0096Y-2.8846
X5.0096Y-2.9946
X5.0096Y-3.0946
X5.0102Y-3.1854
X5.0102Y-3.4854
X5.1502Y-3.1854
X5.1502Y-3.4854
X5.2502Y-3.1854
X5.2502Y-3.4854
X5.3496Y-2.7846
X5.3496Y-2.8846
X5.3496Y-2.9946
X5.3496Y-3.0946
X5.3502Y-3.1854
X5.3502Y-3.4854
X5.4902Y-3.1854
X5.4902Y-3.4854
X5.5902Y-3.1854
X5.5902Y-3.4854
X5.6896Y-2.7846
X5.6896Y-2.8846
X5.6896Y-2.9946
X5.6896Y-3.0946
X5.6902Y-3.1854
X5.6902Y-3.4854
X5.8302Y-3.1854
X5.8302Y-3.4854
X5.9302Y-3.1854
X5.9302Y-3.4854
X6.0296Y-2.7846
X6.0296Y-2.8846
X6.0296Y-2.9946
X6.0296Y-3.0946
X6.0302Y-3.1854
X6.0302Y-3.4854
T5
X3.3046Y-2.0957
X3.3046Y-2.1957
X3.8496Y-3.0557
X3.9496Y-3.0557
X4.0796Y-3.0557
X4.1796Y-3.0557
X4.3096Y-3.0557
X4.4096Y-3.0557
X4.5396Y-3.0557
X4.6396Y-3.0557
X4.7996Y-3.0557
X4.8996Y-3.0557
X5.1396Y-3.0557
X5.2396Y-3.0557
X5.4796Y-3.0557
X5.5796Y-3.0557
X5.8196Y-3.0557
X5.9196Y-3.0557
T6
X3.3002Y-4.4409
X3.3002Y-4.5409
X3.4002Y-4.4409
X3.4002Y-4.5409
X3.4714Y-2.7907
X3.6682Y-2.7907
X4.4496Y-3.9307
X4.4652Y-4.0959
X4.4652Y-4.1959
X4.5496Y-3.9307
X4.5652Y-4.0959
X4.5652Y-4.1959
X4.6496Y-3.9307
X4.6652Y-4.0959
X4.6652Y-4.1959
X4.7496Y-3.9307
X4.814Y-4.0956
X4.814Y-4.1956
X4.8496Y-3.9307
X4.914Y-4.0956
X4.914Y-4.1956
X4.9496Y-3.9307
X5.014Y-4.0956
X5.014Y-4.1956
X5.0496Y-3.9307
X5.9996Y-3.7659
X5.9996Y-3.8659
X5.9996Y-3.9659
X5.9996Y-4.0659
X5.9996Y-4.1659
T7
X4.6709Y-2.3161
X4.7182Y-2.1154
X5.2509Y-2.3161
X5.2982Y-2.1154
X5.4009Y-2.3161
X5.4482Y-2.1154
X6.0009Y-2.3161
X6.0482Y-2.1154
T8
X3.562Y-3.1937
X3.562Y-3.2937
X3.562Y-3.3937
X3.562Y-3.4937
T9
X2.8724Y-2.6057
X2.8724Y-2.8657
X2.9724Y-2.6057
X2.9724Y-2.8657
X3.09Y-2.6057
X3.29Y-2.6057
X3.8418Y-2.9057
X3.9418Y-2.9057
X4.0718Y-2.9057
X4.1718Y-2.9057
X4.3018Y-2.9057
X4.4018Y-2.9057
X4.5318Y-2.9057
X4.6318Y-2.9057
X4.8896Y-2.6557
X4.8896Y-2.7557
X4.8896Y-2.8557
X5.2296Y-2.6557
X5.2296Y-2.7557
X5.2296Y-2.8557
X5.5696Y-2.6557
X5.5696Y-2.7557
X5.5696Y-2.8557
X5.9096Y-2.6557
X5.9096Y-2.7557
X5.9096Y-2.8557
T10
X2.9061Y-2.23
X2.9061Y-4.5797
X3.103Y-2.23
X3.103Y-4.5797
X3.5861Y-4.5797
X3.7061Y-2.23
X3.783Y-4.5797
X3.903Y-2.23
X4.0661Y-4.58
X4.1011Y-2.23
X4.263Y-4.58
X4.298Y-2.23
X4.8761Y-2.23
X5.073Y-2.23
X5.6061Y-2.23
X5.803Y-2.23
T3
G00X5.6747Y-4.8095
M15
G01X5.6747Y-4.782
M16
G05
G00X5.9346Y-4.8095
M15
G01X5.9346Y-4.782
M16
G05
M30
