%TF.GenerationSoftware,KiCad,Pcbnew,8.0.7*%
%TF.CreationDate,2025-01-08T22:05:27-03:00*%
%TF.ProjectId,lira-plc,6c697261-2d70-46c6-932e-6b696361645f,rev?*%
%TF.SameCoordinates,Original*%
%TF.FileFunction,Soldermask,Bot*%
%TF.FilePolarity,Negative*%
%FSLAX46Y46*%
G04 Gerber Fmt 4.6, Leading zero omitted, Abs format (unit mm)*
G04 Created by KiCad (PCBNEW 8.0.7) date 2025-01-08 22:05:27*
%MOMM*%
%LPD*%
G01*
G04 APERTURE LIST*
G04 Aperture macros list*
%AMRoundRect*
0 Rectangle with rounded corners*
0 $1 Rounding radius*
0 $2 $3 $4 $5 $6 $7 $8 $9 X,Y pos of 4 corners*
0 Add a 4 corners polygon primitive as box body*
4,1,4,$2,$3,$4,$5,$6,$7,$8,$9,$2,$3,0*
0 Add four circle primitives for the rounded corners*
1,1,$1+$1,$2,$3*
1,1,$1+$1,$4,$5*
1,1,$1+$1,$6,$7*
1,1,$1+$1,$8,$9*
0 Add four rect primitives between the rounded corners*
20,1,$1+$1,$2,$3,$4,$5,0*
20,1,$1+$1,$4,$5,$6,$7,0*
20,1,$1+$1,$6,$7,$8,$9,0*
20,1,$1+$1,$8,$9,$2,$3,0*%
%AMFreePoly0*
4,1,19,0.500000,-0.750000,0.000000,-0.750000,0.000000,-0.744911,-0.071157,-0.744911,-0.207708,-0.704816,-0.327430,-0.627875,-0.420627,-0.520320,-0.479746,-0.390866,-0.500000,-0.250000,-0.500000,0.250000,-0.479746,0.390866,-0.420627,0.520320,-0.327430,0.627875,-0.207708,0.704816,-0.071157,0.744911,0.000000,0.744911,0.000000,0.750000,0.500000,0.750000,0.500000,-0.750000,0.500000,-0.750000,
$1*%
%AMFreePoly1*
4,1,19,0.000000,0.744911,0.071157,0.744911,0.207708,0.704816,0.327430,0.627875,0.420627,0.520320,0.479746,0.390866,0.500000,0.250000,0.500000,-0.250000,0.479746,-0.390866,0.420627,-0.520320,0.327430,-0.627875,0.207708,-0.704816,0.071157,-0.744911,0.000000,-0.744911,0.000000,-0.750000,-0.500000,-0.750000,-0.500000,0.750000,0.000000,0.750000,0.000000,0.744911,0.000000,0.744911,
$1*%
G04 Aperture macros list end*
%ADD10R,2.200000X2.200000*%
%ADD11O,2.200000X2.200000*%
%ADD12C,1.600000*%
%ADD13O,1.600000X1.600000*%
%ADD14R,1.600000X1.600000*%
%ADD15C,2.010000*%
%ADD16R,1.700000X1.700000*%
%ADD17O,1.700000X1.700000*%
%ADD18R,1.800000X1.800000*%
%ADD19C,1.800000*%
%ADD20R,2.250000X1.750000*%
%ADD21O,2.250000X1.750000*%
%ADD22C,2.240000*%
%ADD23R,2.000000X1.905000*%
%ADD24O,2.000000X1.905000*%
%ADD25R,2.000000X2.000000*%
%ADD26C,2.000000*%
%ADD27O,0.900000X1.600000*%
%ADD28RoundRect,0.237500X0.250000X0.237500X-0.250000X0.237500X-0.250000X-0.237500X0.250000X-0.237500X0*%
%ADD29RoundRect,0.237500X0.300000X0.237500X-0.300000X0.237500X-0.300000X-0.237500X0.300000X-0.237500X0*%
%ADD30RoundRect,0.250001X-0.624999X0.462499X-0.624999X-0.462499X0.624999X-0.462499X0.624999X0.462499X0*%
%ADD31RoundRect,0.237500X0.237500X-0.250000X0.237500X0.250000X-0.237500X0.250000X-0.237500X-0.250000X0*%
%ADD32RoundRect,0.237500X-0.237500X0.300000X-0.237500X-0.300000X0.237500X-0.300000X0.237500X0.300000X0*%
%ADD33RoundRect,0.150000X0.825000X0.150000X-0.825000X0.150000X-0.825000X-0.150000X0.825000X-0.150000X0*%
%ADD34RoundRect,0.237500X-0.250000X-0.237500X0.250000X-0.237500X0.250000X0.237500X-0.250000X0.237500X0*%
%ADD35RoundRect,0.237500X-0.237500X0.250000X-0.237500X-0.250000X0.237500X-0.250000X0.237500X0.250000X0*%
%ADD36RoundRect,0.237500X0.237500X-0.300000X0.237500X0.300000X-0.237500X0.300000X-0.237500X-0.300000X0*%
%ADD37R,1.200000X1.200000*%
%ADD38R,1.600000X1.500000*%
%ADD39RoundRect,0.150000X0.150000X-0.512500X0.150000X0.512500X-0.150000X0.512500X-0.150000X-0.512500X0*%
%ADD40RoundRect,0.425000X-0.425000X-2.425000X0.425000X-2.425000X0.425000X2.425000X-0.425000X2.425000X0*%
%ADD41FreePoly0,90.000000*%
%ADD42FreePoly1,90.000000*%
%ADD43RoundRect,0.237500X-0.300000X-0.237500X0.300000X-0.237500X0.300000X0.237500X-0.300000X0.237500X0*%
G04 APERTURE END LIST*
D10*
%TO.C,D3*%
X111804765Y-73806000D03*
D11*
X109264765Y-73806000D03*
%TD*%
D10*
%TO.C,D1*%
X100120766Y-73806000D03*
D11*
X97580766Y-73806000D03*
%TD*%
D12*
%TO.C,R54*%
X72858000Y-69488000D03*
D13*
X75398000Y-69488000D03*
%TD*%
D14*
%TO.C,U1*%
X100324000Y-80928000D03*
D13*
X97784000Y-80928000D03*
X97784000Y-88548000D03*
X100324000Y-88548000D03*
%TD*%
D12*
%TO.C,C4*%
X115599000Y-53994000D03*
X115599000Y-58994000D03*
%TD*%
D15*
%TO.C,TH3*%
X137184000Y-58830000D03*
X138384000Y-53730000D03*
%TD*%
D14*
%TO.C,U2*%
X106166000Y-80928000D03*
D13*
X103626000Y-80928000D03*
X103626000Y-88548000D03*
X106166000Y-88548000D03*
%TD*%
D16*
%TO.C,J7*%
X152389000Y-95655000D03*
D17*
X152389000Y-98195000D03*
X152389000Y-100735000D03*
X152389000Y-103275000D03*
X152389000Y-105815000D03*
%TD*%
D18*
%TO.C,D16*%
X147817000Y-77616000D03*
D19*
X150357000Y-77616000D03*
%TD*%
D14*
%TO.C,C38*%
X85103651Y-78378000D03*
D12*
X81303651Y-78378000D03*
%TD*%
%TO.C,R39*%
X153151000Y-76063000D03*
D13*
X153151000Y-78603000D03*
%TD*%
D15*
%TO.C,TH4*%
X152424000Y-58830000D03*
X153624000Y-53730000D03*
%TD*%
D12*
%TO.C,R6*%
X109688000Y-67456000D03*
D13*
X112228000Y-67456000D03*
%TD*%
D20*
%TO.C,PS1*%
X90475500Y-81120500D03*
D21*
X90475500Y-83660500D03*
X90475500Y-86200500D03*
X90475500Y-88740500D03*
%TD*%
D22*
%TO.C,J1*%
X99136000Y-56642000D03*
X94136000Y-56642000D03*
%TD*%
%TO.C,J14*%
X147396000Y-56642000D03*
X142396000Y-56642000D03*
%TD*%
D23*
%TO.C,Q3*%
X141467000Y-72536000D03*
D24*
X141467000Y-69996000D03*
X141467000Y-67456000D03*
%TD*%
D15*
%TO.C,TH2*%
X133374000Y-58830000D03*
X134574000Y-53730000D03*
%TD*%
D22*
%TO.C,J13*%
X128854000Y-56642000D03*
X123854000Y-56642000D03*
%TD*%
D16*
%TO.C,J10*%
X127355000Y-104027000D03*
D17*
X127355000Y-106567000D03*
X124815000Y-104027000D03*
X124815000Y-106567000D03*
X122275000Y-104027000D03*
X122275000Y-106567000D03*
%TD*%
D23*
%TO.C,Q2*%
X132831000Y-72536000D03*
D24*
X132831000Y-69996000D03*
X132831000Y-67456000D03*
%TD*%
D18*
%TO.C,D11*%
X83936000Y-53232000D03*
D19*
X83936000Y-55772000D03*
%TD*%
D12*
%TO.C,R4*%
X103846000Y-67456000D03*
D13*
X106386000Y-67456000D03*
%TD*%
D14*
%TO.C,U14*%
X72389000Y-93501000D03*
D13*
X72389000Y-96041000D03*
X72389000Y-98581000D03*
X72389000Y-101121000D03*
X80009000Y-101121000D03*
X80009000Y-98581000D03*
X80009000Y-96041000D03*
X80009000Y-93501000D03*
%TD*%
D12*
%TO.C,R3*%
X100094000Y-70504000D03*
D13*
X97554000Y-70504000D03*
%TD*%
D14*
%TO.C,U16*%
X91038000Y-101101000D03*
D13*
X91038000Y-98561000D03*
X91038000Y-96021000D03*
X91038000Y-93481000D03*
X83418000Y-93481000D03*
X83418000Y-96021000D03*
X83418000Y-98561000D03*
X83418000Y-101101000D03*
%TD*%
D12*
%TO.C,R46*%
X72858000Y-87395000D03*
D13*
X75398000Y-87395000D03*
%TD*%
D12*
%TO.C,C26*%
X72506000Y-80653000D03*
X72506000Y-75653000D03*
%TD*%
%TO.C,R9*%
X117620000Y-70504000D03*
D13*
X115080000Y-70504000D03*
%TD*%
D12*
%TO.C,R27*%
X75300000Y-78124000D03*
D13*
X75300000Y-80664000D03*
%TD*%
D14*
%TO.C,U13*%
X148086000Y-88528000D03*
D13*
X150626000Y-88528000D03*
X153166000Y-88528000D03*
X153166000Y-80908000D03*
X150626000Y-80908000D03*
X148086000Y-80908000D03*
%TD*%
D12*
%TO.C,R33*%
X135879000Y-70729000D03*
D13*
X135879000Y-73269000D03*
%TD*%
D25*
%TO.C,C9*%
X88172323Y-70885000D03*
D26*
X93172323Y-70885000D03*
%TD*%
D16*
%TO.C,J8*%
X128259000Y-99841000D03*
D17*
X125719000Y-99841000D03*
X123179000Y-99841000D03*
X120639000Y-99841000D03*
X118099000Y-99841000D03*
X115559000Y-99841000D03*
X113019000Y-99841000D03*
%TD*%
D12*
%TO.C,R2*%
X98004000Y-67456000D03*
D13*
X100544000Y-67456000D03*
%TD*%
D12*
%TO.C,R37*%
X135879000Y-76063000D03*
D13*
X135879000Y-78603000D03*
%TD*%
D10*
%TO.C,D2*%
X105962766Y-73806000D03*
D11*
X103422766Y-73806000D03*
%TD*%
D18*
%TO.C,D13*%
X121909000Y-77616000D03*
D19*
X124449000Y-77616000D03*
%TD*%
D14*
%TO.C,U11*%
X130814000Y-88528000D03*
D13*
X133354000Y-88528000D03*
X135894000Y-88528000D03*
X135894000Y-80908000D03*
X133354000Y-80908000D03*
X130814000Y-80908000D03*
%TD*%
D16*
%TO.C,J11*%
X113415000Y-106577000D03*
D17*
X113415000Y-104037000D03*
X115955000Y-106577000D03*
X115955000Y-104037000D03*
X118495000Y-106577000D03*
X118495000Y-104037000D03*
%TD*%
D18*
%TO.C,D8*%
X109463000Y-77616000D03*
D19*
X112003000Y-77616000D03*
%TD*%
D14*
%TO.C,U3*%
X112008000Y-80928000D03*
D13*
X109468000Y-80928000D03*
X109468000Y-88548000D03*
X112008000Y-88548000D03*
%TD*%
D12*
%TO.C,R23*%
X83936000Y-58537000D03*
D13*
X83936000Y-61077000D03*
%TD*%
D12*
%TO.C,C28*%
X77292000Y-104159000D03*
X72292000Y-104159000D03*
%TD*%
D18*
%TO.C,D9*%
X115305000Y-77616000D03*
D19*
X117845000Y-77616000D03*
%TD*%
D22*
%TO.C,J3*%
X91088000Y-116324000D03*
X96088000Y-116324000D03*
%TD*%
D18*
%TO.C,D7*%
X103621000Y-77616000D03*
D19*
X106161000Y-77616000D03*
%TD*%
D12*
%TO.C,C2*%
X90199000Y-54034000D03*
X90199000Y-59034000D03*
%TD*%
%TO.C,R8*%
X115530000Y-67456000D03*
D13*
X118070000Y-67456000D03*
%TD*%
D14*
%TO.C,U12*%
X139450000Y-88528000D03*
D13*
X141990000Y-88528000D03*
X144530000Y-88528000D03*
X144530000Y-80908000D03*
X141990000Y-80908000D03*
X139450000Y-80908000D03*
%TD*%
D14*
%TO.C,U15*%
X77850000Y-87390000D03*
D13*
X77850000Y-89930000D03*
X85470000Y-89930000D03*
X85470000Y-87390000D03*
%TD*%
D23*
%TO.C,Q4*%
X150103000Y-72536000D03*
D24*
X150103000Y-69996000D03*
X150103000Y-67456000D03*
%TD*%
D10*
%TO.C,D5*%
X75498234Y-66186000D03*
D11*
X72958234Y-66186000D03*
%TD*%
D15*
%TO.C,TH1*%
X118642000Y-58830000D03*
X119842000Y-53730000D03*
%TD*%
D18*
%TO.C,D14*%
X130545000Y-77616000D03*
D19*
X133085000Y-77616000D03*
%TD*%
D22*
%TO.C,J5*%
X78816000Y-56642000D03*
X73816000Y-56642000D03*
%TD*%
D12*
%TO.C,R32*%
X127243000Y-70729000D03*
D13*
X127243000Y-73269000D03*
%TD*%
D18*
%TO.C,D15*%
X139181000Y-77616000D03*
D19*
X141721000Y-77616000D03*
%TD*%
D27*
%TO.C,J9*%
X144138000Y-121812000D03*
X150738000Y-121812000D03*
%TD*%
D14*
%TO.C,U10*%
X122178000Y-88528000D03*
D13*
X124718000Y-88528000D03*
X127258000Y-88528000D03*
X127258000Y-80908000D03*
X124718000Y-80908000D03*
X122178000Y-80908000D03*
%TD*%
D12*
%TO.C,R34*%
X144515000Y-70729000D03*
D13*
X144515000Y-73269000D03*
%TD*%
D10*
%TO.C,D17*%
X72958234Y-72790000D03*
D11*
X75498234Y-72790000D03*
%TD*%
D12*
%TO.C,R38*%
X144515000Y-76063000D03*
D13*
X144515000Y-78603000D03*
%TD*%
D16*
%TO.C,J4*%
X86365000Y-115340000D03*
D17*
X83825000Y-115340000D03*
X86365000Y-112800000D03*
X83825000Y-112800000D03*
%TD*%
D12*
%TO.C,R36*%
X127243000Y-76063000D03*
D13*
X127243000Y-78603000D03*
%TD*%
D22*
%TO.C,J12*%
X103280000Y-116332000D03*
X108280000Y-116332000D03*
%TD*%
%TO.C,J2*%
X109169000Y-56642000D03*
X104169000Y-56642000D03*
%TD*%
D12*
%TO.C,C1*%
X87659000Y-54034000D03*
X87659000Y-59034000D03*
%TD*%
D10*
%TO.C,D4*%
X117646766Y-73806000D03*
D11*
X115106766Y-73806000D03*
%TD*%
D12*
%TO.C,R7*%
X111778000Y-70504000D03*
D13*
X109238000Y-70504000D03*
%TD*%
D12*
%TO.C,R35*%
X153151000Y-70729000D03*
D13*
X153151000Y-73269000D03*
%TD*%
D18*
%TO.C,D6*%
X97779000Y-77616000D03*
D19*
X100319000Y-77616000D03*
%TD*%
D12*
%TO.C,C3*%
X113059000Y-53994000D03*
X113059000Y-58994000D03*
%TD*%
D22*
%TO.C,J6*%
X73816000Y-116324000D03*
X78816000Y-116324000D03*
%TD*%
D12*
%TO.C,R40*%
X76853000Y-106953000D03*
D13*
X74313000Y-106953000D03*
%TD*%
D10*
%TO.C,D10*%
X83566000Y-66186000D03*
D11*
X78486000Y-66186000D03*
%TD*%
D12*
%TO.C,R5*%
X105936000Y-70504000D03*
D13*
X103396000Y-70504000D03*
%TD*%
D28*
%TO.C,R21*%
X117752500Y-108096000D03*
X115927500Y-108096000D03*
%TD*%
D29*
%TO.C,C8*%
X117437500Y-75838000D03*
X115712500Y-75838000D03*
%TD*%
D30*
%TO.C,L2*%
X94096000Y-86796500D03*
X94096000Y-89771500D03*
%TD*%
D31*
%TO.C,R56*%
X87376000Y-75080500D03*
X87376000Y-73255500D03*
%TD*%
D32*
%TO.C,C31*%
X78475000Y-100483500D03*
X78475000Y-102208500D03*
%TD*%
D33*
%TO.C,U9*%
X117272000Y-114827000D03*
X117272000Y-116097000D03*
X117272000Y-117367000D03*
X117272000Y-118637000D03*
X112322000Y-118637000D03*
X112322000Y-117367000D03*
X112322000Y-116097000D03*
X112322000Y-114827000D03*
%TD*%
D32*
%TO.C,C14*%
X92456000Y-79547500D03*
X92456000Y-81272500D03*
%TD*%
D29*
%TO.C,C29*%
X74268500Y-108712000D03*
X72543500Y-108712000D03*
%TD*%
D32*
%TO.C,C33*%
X87111000Y-88310500D03*
X87111000Y-90035500D03*
%TD*%
%TO.C,C30*%
X75681000Y-93009500D03*
X75681000Y-94734500D03*
%TD*%
D34*
%TO.C,R44*%
X74133500Y-96285000D03*
X75958500Y-96285000D03*
%TD*%
D35*
%TO.C,R49*%
X84815000Y-100315500D03*
X84815000Y-102140500D03*
%TD*%
D29*
%TO.C,C7*%
X111595500Y-75838000D03*
X109870500Y-75838000D03*
%TD*%
D35*
%TO.C,R47*%
X88635000Y-88260500D03*
X88635000Y-90085500D03*
%TD*%
D36*
%TO.C,C34*%
X87884000Y-102090500D03*
X87884000Y-100365500D03*
%TD*%
D29*
%TO.C,C35*%
X87222500Y-93218000D03*
X85497500Y-93218000D03*
%TD*%
D28*
%TO.C,R52*%
X89537500Y-98815000D03*
X87712500Y-98815000D03*
%TD*%
D35*
%TO.C,R55*%
X85852000Y-73255500D03*
X85852000Y-75080500D03*
%TD*%
D37*
%TO.C,R45*%
X74173000Y-98041000D03*
D38*
X75173000Y-101291000D03*
D37*
X76173000Y-98041000D03*
%TD*%
D28*
%TO.C,R1*%
X90066500Y-112776000D03*
X88241500Y-112776000D03*
%TD*%
D34*
%TO.C,R24*%
X106658500Y-114277000D03*
X108483500Y-114277000D03*
%TD*%
D39*
%TO.C,D12*%
X106743000Y-118716500D03*
X104843000Y-118716500D03*
X105793000Y-116441500D03*
%TD*%
D35*
%TO.C,R48*%
X89408000Y-100315500D03*
X89408000Y-102140500D03*
%TD*%
D40*
%TO.C,L4*%
X78765000Y-71266000D03*
X83265000Y-71266000D03*
%TD*%
D29*
%TO.C,C17*%
X113627500Y-111652000D03*
X111902500Y-111652000D03*
%TD*%
D34*
%TO.C,R20*%
X111852500Y-120288000D03*
X113677500Y-120288000D03*
%TD*%
D29*
%TO.C,C5*%
X99911500Y-75838000D03*
X98186500Y-75838000D03*
%TD*%
D31*
%TO.C,R41*%
X74157000Y-94784500D03*
X74157000Y-92959500D03*
%TD*%
D29*
%TO.C,C32*%
X74892500Y-89154000D03*
X73167500Y-89154000D03*
%TD*%
D32*
%TO.C,C36*%
X86339000Y-100365500D03*
X86339000Y-102090500D03*
%TD*%
D37*
%TO.C,R53*%
X95234000Y-96796000D03*
D38*
X94234000Y-93546000D03*
D37*
X93234000Y-96796000D03*
%TD*%
D29*
%TO.C,C6*%
X105753500Y-75838000D03*
X104028500Y-75838000D03*
%TD*%
D28*
%TO.C,R50*%
X87272500Y-96774000D03*
X85447500Y-96774000D03*
%TD*%
D41*
%TO.C,JP1*%
X143753000Y-116620000D03*
D42*
X143753000Y-115320000D03*
%TD*%
D28*
%TO.C,R25*%
X104927500Y-114277000D03*
X103102500Y-114277000D03*
%TD*%
D34*
%TO.C,R26*%
X115927500Y-102362000D03*
X117752500Y-102362000D03*
%TD*%
D30*
%TO.C,L1*%
X94488000Y-79684500D03*
X94488000Y-82659500D03*
%TD*%
D35*
%TO.C,R43*%
X78475000Y-96515500D03*
X78475000Y-98340500D03*
%TD*%
D28*
%TO.C,R51*%
X85447500Y-94996000D03*
X87272500Y-94996000D03*
%TD*%
D35*
%TO.C,R10*%
X83566000Y-109069500D03*
X83566000Y-110894500D03*
%TD*%
D43*
%TO.C,C23*%
X111902500Y-113176000D03*
X113627500Y-113176000D03*
%TD*%
D35*
%TO.C,R42*%
X77205000Y-92959500D03*
X77205000Y-94784500D03*
%TD*%
D23*
%TO.C,Q1*%
X124195000Y-72536000D03*
D24*
X124195000Y-69996000D03*
X124195000Y-67456000D03*
%TD*%
D14*
%TO.C,U4*%
X117850000Y-80928000D03*
D13*
X115310000Y-80928000D03*
X115310000Y-88548000D03*
X117850000Y-88548000D03*
%TD*%
G36*
X154443039Y-84519685D02*
G01*
X154488794Y-84572489D01*
X154500000Y-84624000D01*
X154500000Y-85126000D01*
X154480315Y-85193039D01*
X154427511Y-85238794D01*
X154376000Y-85250000D01*
X81972977Y-85250000D01*
X81905938Y-85230315D01*
X81860183Y-85177511D01*
X81849124Y-85132041D01*
X81847597Y-85100747D01*
X81809906Y-85009749D01*
X81740253Y-84940096D01*
X81649249Y-84902402D01*
X81550750Y-84902402D01*
X81459745Y-84940096D01*
X81449596Y-84946879D01*
X81448559Y-84945327D01*
X81400358Y-84971647D01*
X81330666Y-84966663D01*
X81274733Y-84924791D01*
X81250316Y-84859327D01*
X81250000Y-84850481D01*
X81250000Y-84624000D01*
X81269685Y-84556961D01*
X81322489Y-84511206D01*
X81374000Y-84500000D01*
X154376000Y-84500000D01*
X154443039Y-84519685D01*
G37*
G36*
X81919334Y-103033337D02*
G01*
X81975267Y-103075209D01*
X81999684Y-103140673D01*
X82000000Y-103149519D01*
X82000000Y-104999998D01*
X82000001Y-105000000D01*
X87749999Y-109249999D01*
X87750002Y-109250000D01*
X122376000Y-109250000D01*
X122443039Y-109269685D01*
X122488794Y-109322489D01*
X122500000Y-109374000D01*
X122500000Y-123076000D01*
X122480315Y-123143039D01*
X122427511Y-123188794D01*
X122376000Y-123200000D01*
X121374000Y-123200000D01*
X121306961Y-123180315D01*
X121261206Y-123127511D01*
X121250000Y-123076000D01*
X121250000Y-111100008D01*
X121650000Y-111100008D01*
X121650000Y-122299991D01*
X121652402Y-122349252D01*
X121690093Y-122440250D01*
X121759746Y-122509903D01*
X121850750Y-122547597D01*
X121850752Y-122547598D01*
X121949248Y-122547598D01*
X121949249Y-122547597D01*
X122040253Y-122509903D01*
X122109906Y-122440250D01*
X122147597Y-122349252D01*
X122149999Y-122299991D01*
X122150000Y-122299984D01*
X122150000Y-111100016D01*
X122149999Y-111100008D01*
X122147597Y-111050747D01*
X122109906Y-110959749D01*
X122040253Y-110890096D01*
X121949249Y-110852402D01*
X121850750Y-110852402D01*
X121759746Y-110890096D01*
X121690093Y-110959749D01*
X121652402Y-111050747D01*
X121650000Y-111100008D01*
X121250000Y-111100008D01*
X121250000Y-110000000D01*
X87541772Y-110000000D01*
X87474733Y-109980315D01*
X87466742Y-109974724D01*
X81298970Y-105287217D01*
X81257506Y-105230981D01*
X81250000Y-105188493D01*
X81250000Y-103199519D01*
X81269685Y-103132480D01*
X81322489Y-103086725D01*
X81391647Y-103076781D01*
X81449532Y-103103216D01*
X81449596Y-103103121D01*
X81450183Y-103103513D01*
X81455203Y-103105806D01*
X81459241Y-103109566D01*
X81459745Y-103109903D01*
X81550750Y-103147597D01*
X81550752Y-103147598D01*
X81649248Y-103147598D01*
X81649249Y-103147597D01*
X81740253Y-103109903D01*
X81788319Y-103061838D01*
X81849642Y-103028353D01*
X81919334Y-103033337D01*
G37*
M02*
