%TF.GenerationSoftware,KiCad,Pcbnew,8.0.7*%
%TF.CreationDate,2025-01-08T22:05:27-03:00*%
%TF.ProjectId,lira-plc,6c697261-2d70-46c6-932e-6b696361645f,rev?*%
%TF.SameCoordinates,Original*%
%TF.FileFunction,Soldermask,Top*%
%TF.FilePolarity,Negative*%
%FSLAX46Y46*%
G04 Gerber Fmt 4.6, Leading zero omitted, Abs format (unit mm)*
G04 Created by KiCad (PCBNEW 8.0.7) date 2025-01-08 22:05:27*
%MOMM*%
%LPD*%
G01*
G04 APERTURE LIST*
G04 Aperture macros list*
%AMRoundRect*
0 Rectangle with rounded corners*
0 $1 Rounding radius*
0 $2 $3 $4 $5 $6 $7 $8 $9 X,Y pos of 4 corners*
0 Add a 4 corners polygon primitive as box body*
4,1,4,$2,$3,$4,$5,$6,$7,$8,$9,$2,$3,0*
0 Add four circle primitives for the rounded corners*
1,1,$1+$1,$2,$3*
1,1,$1+$1,$4,$5*
1,1,$1+$1,$6,$7*
1,1,$1+$1,$8,$9*
0 Add four rect primitives between the rounded corners*
20,1,$1+$1,$2,$3,$4,$5,0*
20,1,$1+$1,$4,$5,$6,$7,0*
20,1,$1+$1,$6,$7,$8,$9,0*
20,1,$1+$1,$8,$9,$2,$3,0*%
G04 Aperture macros list end*
%ADD10R,2.200000X2.200000*%
%ADD11O,2.200000X2.200000*%
%ADD12C,1.600000*%
%ADD13O,1.600000X1.600000*%
%ADD14R,1.600000X1.600000*%
%ADD15RoundRect,0.237500X0.250000X0.237500X-0.250000X0.237500X-0.250000X-0.237500X0.250000X-0.237500X0*%
%ADD16C,2.010000*%
%ADD17R,1.700000X1.700000*%
%ADD18O,1.700000X1.700000*%
%ADD19R,1.800000X1.800000*%
%ADD20C,1.800000*%
%ADD21RoundRect,0.237500X-0.300000X-0.237500X0.300000X-0.237500X0.300000X0.237500X-0.300000X0.237500X0*%
%ADD22RoundRect,0.237500X0.300000X0.237500X-0.300000X0.237500X-0.300000X-0.237500X0.300000X-0.237500X0*%
%ADD23R,2.250000X1.750000*%
%ADD24O,2.250000X1.750000*%
%ADD25C,2.240000*%
%ADD26R,2.000000X1.905000*%
%ADD27O,2.000000X1.905000*%
%ADD28RoundRect,0.150000X0.875000X0.150000X-0.875000X0.150000X-0.875000X-0.150000X0.875000X-0.150000X0*%
%ADD29RoundRect,0.250001X0.462499X0.624999X-0.462499X0.624999X-0.462499X-0.624999X0.462499X-0.624999X0*%
%ADD30R,2.000000X2.000000*%
%ADD31C,2.000000*%
%ADD32R,1.000000X1.250000*%
%ADD33RoundRect,0.075000X-0.075000X0.662500X-0.075000X-0.662500X0.075000X-0.662500X0.075000X0.662500X0*%
%ADD34RoundRect,0.075000X-0.662500X0.075000X-0.662500X-0.075000X0.662500X-0.075000X0.662500X0.075000X0*%
%ADD35RoundRect,0.150000X-0.825000X-0.150000X0.825000X-0.150000X0.825000X0.150000X-0.825000X0.150000X0*%
%ADD36RoundRect,0.237500X0.237500X-0.250000X0.237500X0.250000X-0.237500X0.250000X-0.237500X-0.250000X0*%
%ADD37RoundRect,0.100000X-0.100000X-0.575000X0.100000X-0.575000X0.100000X0.575000X-0.100000X0.575000X0*%
%ADD38O,0.900000X1.600000*%
%ADD39RoundRect,0.250000X-0.550000X-0.450000X0.550000X-0.450000X0.550000X0.450000X-0.550000X0.450000X0*%
%ADD40RoundRect,0.250000X-0.700000X-0.700000X0.700000X-0.700000X0.700000X0.700000X-0.700000X0.700000X0*%
%ADD41RoundRect,0.375000X-0.625000X-0.375000X0.625000X-0.375000X0.625000X0.375000X-0.625000X0.375000X0*%
%ADD42RoundRect,0.500000X-0.500000X-1.400000X0.500000X-1.400000X0.500000X1.400000X-0.500000X1.400000X0*%
%ADD43RoundRect,0.237500X-0.237500X0.300000X-0.237500X-0.300000X0.237500X-0.300000X0.237500X0.300000X0*%
%ADD44RoundRect,0.237500X-0.250000X-0.237500X0.250000X-0.237500X0.250000X0.237500X-0.250000X0.237500X0*%
%ADD45RoundRect,0.250000X0.412500X0.650000X-0.412500X0.650000X-0.412500X-0.650000X0.412500X-0.650000X0*%
G04 APERTURE END LIST*
D10*
%TO.C,D3*%
X111804765Y-73806000D03*
D11*
X109264765Y-73806000D03*
%TD*%
D10*
%TO.C,D1*%
X100120766Y-73806000D03*
D11*
X97580766Y-73806000D03*
%TD*%
D12*
%TO.C,R54*%
X72858000Y-69488000D03*
D13*
X75398000Y-69488000D03*
%TD*%
D14*
%TO.C,U1*%
X100324000Y-80928000D03*
D13*
X97784000Y-80928000D03*
X97784000Y-88548000D03*
X100324000Y-88548000D03*
%TD*%
D15*
%TO.C,R29*%
X135775500Y-90824000D03*
X133950500Y-90824000D03*
%TD*%
D12*
%TO.C,C4*%
X115599000Y-53994000D03*
X115599000Y-58994000D03*
%TD*%
D16*
%TO.C,TH3*%
X137184000Y-58830000D03*
X138384000Y-53730000D03*
%TD*%
D14*
%TO.C,U2*%
X106166000Y-80928000D03*
D13*
X103626000Y-80928000D03*
X103626000Y-88548000D03*
X106166000Y-88548000D03*
%TD*%
D17*
%TO.C,J7*%
X152389000Y-95655000D03*
D18*
X152389000Y-98195000D03*
X152389000Y-100735000D03*
X152389000Y-103275000D03*
X152389000Y-105815000D03*
%TD*%
D19*
%TO.C,D16*%
X147817000Y-77616000D03*
D20*
X150357000Y-77616000D03*
%TD*%
D14*
%TO.C,C38*%
X85103651Y-78378000D03*
D12*
X81303651Y-78378000D03*
%TD*%
%TO.C,R39*%
X153151000Y-76063000D03*
D13*
X153151000Y-78603000D03*
%TD*%
D21*
%TO.C,C15*%
X128931500Y-121158000D03*
X130656500Y-121158000D03*
%TD*%
D22*
%TO.C,C11*%
X105753500Y-90570000D03*
X104028500Y-90570000D03*
%TD*%
D16*
%TO.C,TH4*%
X152424000Y-58830000D03*
X153624000Y-53730000D03*
%TD*%
D22*
%TO.C,C18*%
X136498500Y-105664000D03*
X134773500Y-105664000D03*
%TD*%
D12*
%TO.C,R6*%
X109688000Y-67456000D03*
D13*
X112228000Y-67456000D03*
%TD*%
D23*
%TO.C,PS1*%
X90475500Y-81120500D03*
D24*
X90475500Y-83660500D03*
X90475500Y-86200500D03*
X90475500Y-88740500D03*
%TD*%
D21*
%TO.C,C21*%
X147843500Y-98698000D03*
X149568500Y-98698000D03*
%TD*%
D25*
%TO.C,J1*%
X99136000Y-56642000D03*
X94136000Y-56642000D03*
%TD*%
D15*
%TO.C,R13*%
X111645500Y-92094000D03*
X109820500Y-92094000D03*
%TD*%
D25*
%TO.C,J14*%
X147396000Y-56642000D03*
X142396000Y-56642000D03*
%TD*%
D15*
%TO.C,R12*%
X105803500Y-92094000D03*
X103978500Y-92094000D03*
%TD*%
D26*
%TO.C,Q3*%
X141467000Y-72536000D03*
D27*
X141467000Y-69996000D03*
X141467000Y-67456000D03*
%TD*%
D16*
%TO.C,TH2*%
X133374000Y-58830000D03*
X134574000Y-53730000D03*
%TD*%
D25*
%TO.C,J13*%
X128854000Y-56642000D03*
X123854000Y-56642000D03*
%TD*%
D17*
%TO.C,J10*%
X127355000Y-104027000D03*
D18*
X127355000Y-106567000D03*
X124815000Y-104027000D03*
X124815000Y-106567000D03*
X122275000Y-104027000D03*
X122275000Y-106567000D03*
%TD*%
D15*
%TO.C,R11*%
X99961500Y-92094000D03*
X98136500Y-92094000D03*
%TD*%
D21*
%TO.C,C22*%
X141493500Y-94507000D03*
X143218500Y-94507000D03*
%TD*%
D26*
%TO.C,Q2*%
X132831000Y-72536000D03*
D27*
X132831000Y-69996000D03*
X132831000Y-67456000D03*
%TD*%
D15*
%TO.C,R28*%
X126885500Y-90824000D03*
X125060500Y-90824000D03*
%TD*%
D19*
%TO.C,D11*%
X83936000Y-53232000D03*
D20*
X83936000Y-55772000D03*
%TD*%
D12*
%TO.C,R4*%
X103846000Y-67456000D03*
D13*
X106386000Y-67456000D03*
%TD*%
D21*
%TO.C,C20*%
X145949500Y-105664000D03*
X147674500Y-105664000D03*
%TD*%
D15*
%TO.C,R19*%
X113677500Y-113176000D03*
X111852500Y-113176000D03*
%TD*%
D14*
%TO.C,U14*%
X72389000Y-93501000D03*
D13*
X72389000Y-96041000D03*
X72389000Y-98581000D03*
X72389000Y-101121000D03*
X80009000Y-101121000D03*
X80009000Y-98581000D03*
X80009000Y-96041000D03*
X80009000Y-93501000D03*
%TD*%
D12*
%TO.C,R3*%
X100094000Y-70504000D03*
D13*
X97554000Y-70504000D03*
%TD*%
D14*
%TO.C,U16*%
X91038000Y-101101000D03*
D13*
X91038000Y-98561000D03*
X91038000Y-96021000D03*
X91038000Y-93481000D03*
X83418000Y-93481000D03*
X83418000Y-96021000D03*
X83418000Y-98561000D03*
X83418000Y-101101000D03*
%TD*%
D22*
%TO.C,C12*%
X111595500Y-90570000D03*
X109870500Y-90570000D03*
%TD*%
D12*
%TO.C,R46*%
X72858000Y-87395000D03*
D13*
X75398000Y-87395000D03*
%TD*%
D12*
%TO.C,C26*%
X72506000Y-80653000D03*
X72506000Y-75653000D03*
%TD*%
D28*
%TO.C,U6*%
X126559000Y-121177000D03*
X126559000Y-119907000D03*
X126559000Y-118637000D03*
X126559000Y-117367000D03*
X126559000Y-116097000D03*
X126559000Y-114827000D03*
X126559000Y-113557000D03*
X126559000Y-112287000D03*
X117259000Y-112287000D03*
X117259000Y-113557000D03*
X117259000Y-114827000D03*
X117259000Y-116097000D03*
X117259000Y-117367000D03*
X117259000Y-118637000D03*
X117259000Y-119907000D03*
X117259000Y-121177000D03*
%TD*%
D12*
%TO.C,R9*%
X117620000Y-70504000D03*
D13*
X115080000Y-70504000D03*
%TD*%
D12*
%TO.C,R27*%
X75300000Y-78124000D03*
D13*
X75300000Y-80664000D03*
%TD*%
D29*
%TO.C,L3*%
X148807500Y-93000000D03*
X145832500Y-93000000D03*
%TD*%
D14*
%TO.C,U13*%
X148086000Y-88528000D03*
D13*
X150626000Y-88528000D03*
X153166000Y-88528000D03*
X153166000Y-80908000D03*
X150626000Y-80908000D03*
X148086000Y-80908000D03*
%TD*%
D12*
%TO.C,R33*%
X135879000Y-70729000D03*
D13*
X135879000Y-73269000D03*
%TD*%
D30*
%TO.C,C9*%
X88172323Y-70885000D03*
D31*
X93172323Y-70885000D03*
%TD*%
D17*
%TO.C,J8*%
X128259000Y-99841000D03*
D18*
X125719000Y-99841000D03*
X123179000Y-99841000D03*
X120639000Y-99841000D03*
X118099000Y-99841000D03*
X115559000Y-99841000D03*
X113019000Y-99841000D03*
%TD*%
D12*
%TO.C,R2*%
X98004000Y-67456000D03*
D13*
X100544000Y-67456000D03*
%TD*%
D12*
%TO.C,R37*%
X135879000Y-76063000D03*
D13*
X135879000Y-78603000D03*
%TD*%
D10*
%TO.C,D2*%
X105962766Y-73806000D03*
D11*
X103422766Y-73806000D03*
%TD*%
D19*
%TO.C,D13*%
X121909000Y-77616000D03*
D20*
X124449000Y-77616000D03*
%TD*%
D32*
%TO.C,SW1*%
X132831000Y-96917000D03*
X132831000Y-104667000D03*
%TD*%
D21*
%TO.C,C24*%
X146457500Y-94996000D03*
X148182500Y-94996000D03*
%TD*%
D33*
%TO.C,U8*%
X143836000Y-97202500D03*
X143336000Y-97202500D03*
X142836000Y-97202500D03*
X142336000Y-97202500D03*
X141836000Y-97202500D03*
X141336000Y-97202500D03*
X140836000Y-97202500D03*
X140336000Y-97202500D03*
X139836000Y-97202500D03*
X139336000Y-97202500D03*
X138836000Y-97202500D03*
X138336000Y-97202500D03*
D34*
X136923500Y-98615000D03*
X136923500Y-99115000D03*
X136923500Y-99615000D03*
X136923500Y-100115000D03*
X136923500Y-100615000D03*
X136923500Y-101115000D03*
X136923500Y-101615000D03*
X136923500Y-102115000D03*
X136923500Y-102615000D03*
X136923500Y-103115000D03*
X136923500Y-103615000D03*
X136923500Y-104115000D03*
D33*
X138336000Y-105527500D03*
X138836000Y-105527500D03*
X139336000Y-105527500D03*
X139836000Y-105527500D03*
X140336000Y-105527500D03*
X140836000Y-105527500D03*
X141336000Y-105527500D03*
X141836000Y-105527500D03*
X142336000Y-105527500D03*
X142836000Y-105527500D03*
X143336000Y-105527500D03*
X143836000Y-105527500D03*
D34*
X145248500Y-104115000D03*
X145248500Y-103615000D03*
X145248500Y-103115000D03*
X145248500Y-102615000D03*
X145248500Y-102115000D03*
X145248500Y-101615000D03*
X145248500Y-101115000D03*
X145248500Y-100615000D03*
X145248500Y-100115000D03*
X145248500Y-99615000D03*
X145248500Y-99115000D03*
X145248500Y-98615000D03*
%TD*%
D15*
%TO.C,R18*%
X113677500Y-111652000D03*
X111852500Y-111652000D03*
%TD*%
D14*
%TO.C,U11*%
X130814000Y-88528000D03*
D13*
X133354000Y-88528000D03*
X135894000Y-88528000D03*
X135894000Y-80908000D03*
X133354000Y-80908000D03*
X130814000Y-80908000D03*
%TD*%
D15*
%TO.C,R31*%
X153047500Y-90824000D03*
X151222500Y-90824000D03*
%TD*%
D17*
%TO.C,J11*%
X113415000Y-106577000D03*
D18*
X113415000Y-104037000D03*
X115955000Y-106577000D03*
X115955000Y-104037000D03*
X118495000Y-106577000D03*
X118495000Y-104037000D03*
%TD*%
D19*
%TO.C,D8*%
X109463000Y-77616000D03*
D20*
X112003000Y-77616000D03*
%TD*%
D14*
%TO.C,U3*%
X112008000Y-80928000D03*
D13*
X109468000Y-80928000D03*
X109468000Y-88548000D03*
X112008000Y-88548000D03*
%TD*%
D12*
%TO.C,R23*%
X83936000Y-58537000D03*
D13*
X83936000Y-61077000D03*
%TD*%
D35*
%TO.C,U17*%
X78540000Y-69361000D03*
X78540000Y-70631000D03*
X78540000Y-71901000D03*
X78540000Y-73171000D03*
X83490000Y-73171000D03*
X83490000Y-71901000D03*
X83490000Y-70631000D03*
X83490000Y-69361000D03*
%TD*%
D15*
%TO.C,R30*%
X144816000Y-90824000D03*
X142991000Y-90824000D03*
%TD*%
D22*
%TO.C,C19*%
X92810500Y-103632000D03*
X91085500Y-103632000D03*
%TD*%
%TO.C,C27*%
X139789500Y-94507000D03*
X138064500Y-94507000D03*
%TD*%
D12*
%TO.C,C28*%
X77292000Y-104159000D03*
X72292000Y-104159000D03*
%TD*%
D19*
%TO.C,D9*%
X115305000Y-77616000D03*
D20*
X117845000Y-77616000D03*
%TD*%
D25*
%TO.C,J3*%
X91088000Y-116324000D03*
X96088000Y-116324000D03*
%TD*%
D36*
%TO.C,R15*%
X129021000Y-113580500D03*
X129021000Y-111755500D03*
%TD*%
D19*
%TO.C,D7*%
X103621000Y-77616000D03*
D20*
X106161000Y-77616000D03*
%TD*%
D15*
%TO.C,R14*%
X117487500Y-92094000D03*
X115662500Y-92094000D03*
%TD*%
D12*
%TO.C,C2*%
X90199000Y-54034000D03*
X90199000Y-59034000D03*
%TD*%
D36*
%TO.C,R17*%
X146293000Y-115866500D03*
X146293000Y-114041500D03*
%TD*%
D12*
%TO.C,R8*%
X115530000Y-67456000D03*
D13*
X118070000Y-67456000D03*
%TD*%
D14*
%TO.C,U12*%
X139450000Y-88528000D03*
D13*
X141990000Y-88528000D03*
X144530000Y-88528000D03*
X144530000Y-80908000D03*
X141990000Y-80908000D03*
X139450000Y-80908000D03*
%TD*%
D14*
%TO.C,U15*%
X77850000Y-87390000D03*
D13*
X77850000Y-89930000D03*
X85470000Y-89930000D03*
X85470000Y-87390000D03*
%TD*%
D26*
%TO.C,Q4*%
X150103000Y-72536000D03*
D27*
X150103000Y-69996000D03*
X150103000Y-67456000D03*
%TD*%
D10*
%TO.C,D5*%
X75498234Y-66186000D03*
D11*
X72958234Y-66186000D03*
%TD*%
D36*
%TO.C,R16*%
X147817000Y-115866500D03*
X147817000Y-114041500D03*
%TD*%
D16*
%TO.C,TH1*%
X118642000Y-58830000D03*
X119842000Y-53730000D03*
%TD*%
D19*
%TO.C,D14*%
X130545000Y-77616000D03*
D20*
X133085000Y-77616000D03*
%TD*%
D22*
%TO.C,C10*%
X99911500Y-90570000D03*
X98186500Y-90570000D03*
%TD*%
D25*
%TO.C,J5*%
X78816000Y-56642000D03*
X73816000Y-56642000D03*
%TD*%
D12*
%TO.C,R32*%
X127243000Y-70729000D03*
D13*
X127243000Y-73269000D03*
%TD*%
D19*
%TO.C,D15*%
X139181000Y-77616000D03*
D20*
X141721000Y-77616000D03*
%TD*%
D37*
%TO.C,J9*%
X146138000Y-119137000D03*
X146788000Y-119137000D03*
X147438000Y-119137000D03*
X148088000Y-119137000D03*
X148738000Y-119137000D03*
D38*
X144138000Y-121812000D03*
D39*
X144238000Y-119362000D03*
D40*
X146238000Y-121812000D03*
X148638000Y-121812000D03*
D39*
X150638000Y-119362000D03*
D38*
X150738000Y-121812000D03*
%TD*%
D14*
%TO.C,U10*%
X122178000Y-88528000D03*
D13*
X124718000Y-88528000D03*
X127258000Y-88528000D03*
X127258000Y-80908000D03*
X124718000Y-80908000D03*
X122178000Y-80908000D03*
%TD*%
D41*
%TO.C,U7*%
X95137000Y-101351000D03*
X95137000Y-103651000D03*
D42*
X101437000Y-103651000D03*
D41*
X95137000Y-105951000D03*
%TD*%
D12*
%TO.C,R34*%
X144515000Y-70729000D03*
D13*
X144515000Y-73269000D03*
%TD*%
D10*
%TO.C,D17*%
X72958234Y-72790000D03*
D11*
X75498234Y-72790000D03*
%TD*%
D12*
%TO.C,R38*%
X144515000Y-76063000D03*
D13*
X144515000Y-78603000D03*
%TD*%
D22*
%TO.C,C13*%
X117437500Y-90570000D03*
X115712500Y-90570000D03*
%TD*%
D17*
%TO.C,J4*%
X86365000Y-115340000D03*
D18*
X83825000Y-115340000D03*
X86365000Y-112800000D03*
X83825000Y-112800000D03*
%TD*%
D12*
%TO.C,R36*%
X127243000Y-76063000D03*
D13*
X127243000Y-78603000D03*
%TD*%
D43*
%TO.C,C39*%
X78094000Y-74949000D03*
X78094000Y-76674000D03*
%TD*%
D25*
%TO.C,J12*%
X103280000Y-116332000D03*
X108280000Y-116332000D03*
%TD*%
%TO.C,J2*%
X109169000Y-56642000D03*
X104169000Y-56642000D03*
%TD*%
D12*
%TO.C,C1*%
X87659000Y-54034000D03*
X87659000Y-59034000D03*
%TD*%
D10*
%TO.C,D4*%
X117646766Y-73806000D03*
D11*
X115106766Y-73806000D03*
%TD*%
D22*
%TO.C,C25*%
X139789500Y-92983000D03*
X138064500Y-92983000D03*
%TD*%
D12*
%TO.C,R7*%
X111778000Y-70504000D03*
D13*
X109238000Y-70504000D03*
%TD*%
D12*
%TO.C,R35*%
X153151000Y-70729000D03*
D13*
X153151000Y-73269000D03*
%TD*%
D44*
%TO.C,R22*%
X141443500Y-92983000D03*
X143268500Y-92983000D03*
%TD*%
D19*
%TO.C,D6*%
X97779000Y-77616000D03*
D20*
X100319000Y-77616000D03*
%TD*%
D45*
%TO.C,C16*%
X92562500Y-106000000D03*
X89437500Y-106000000D03*
%TD*%
D12*
%TO.C,C3*%
X113059000Y-53994000D03*
X113059000Y-58994000D03*
%TD*%
D25*
%TO.C,J6*%
X73816000Y-116324000D03*
X78816000Y-116324000D03*
%TD*%
D12*
%TO.C,R40*%
X76853000Y-106953000D03*
D13*
X74313000Y-106953000D03*
%TD*%
D10*
%TO.C,D10*%
X83566000Y-66186000D03*
D11*
X78486000Y-66186000D03*
%TD*%
D12*
%TO.C,R5*%
X105936000Y-70504000D03*
D13*
X103396000Y-70504000D03*
%TD*%
D26*
%TO.C,Q1*%
X124195000Y-72536000D03*
D27*
X124195000Y-69996000D03*
X124195000Y-67456000D03*
%TD*%
D14*
%TO.C,U4*%
X117850000Y-80928000D03*
D13*
X115310000Y-80928000D03*
X115310000Y-88548000D03*
X117850000Y-88548000D03*
%TD*%
G36*
X154443039Y-84519685D02*
G01*
X154488794Y-84572489D01*
X154500000Y-84624000D01*
X154500000Y-85126000D01*
X154480315Y-85193039D01*
X154427511Y-85238794D01*
X154376000Y-85250000D01*
X81972977Y-85250000D01*
X81905938Y-85230315D01*
X81860183Y-85177511D01*
X81849124Y-85132041D01*
X81847597Y-85100747D01*
X81809906Y-85009749D01*
X81740253Y-84940096D01*
X81649249Y-84902402D01*
X81550750Y-84902402D01*
X81459745Y-84940096D01*
X81449596Y-84946879D01*
X81448559Y-84945327D01*
X81400358Y-84971647D01*
X81330666Y-84966663D01*
X81274733Y-84924791D01*
X81250316Y-84859327D01*
X81250000Y-84850481D01*
X81250000Y-84624000D01*
X81269685Y-84556961D01*
X81322489Y-84511206D01*
X81374000Y-84500000D01*
X154376000Y-84500000D01*
X154443039Y-84519685D01*
G37*
G36*
X81919334Y-103033337D02*
G01*
X81975267Y-103075209D01*
X81999684Y-103140673D01*
X82000000Y-103149519D01*
X82000000Y-104999998D01*
X82000001Y-105000000D01*
X87749999Y-109249999D01*
X87750002Y-109250000D01*
X122376000Y-109250000D01*
X122443039Y-109269685D01*
X122488794Y-109322489D01*
X122500000Y-109374000D01*
X122500000Y-123076000D01*
X122480315Y-123143039D01*
X122427511Y-123188794D01*
X122376000Y-123200000D01*
X121374000Y-123200000D01*
X121306961Y-123180315D01*
X121261206Y-123127511D01*
X121250000Y-123076000D01*
X121250000Y-111100008D01*
X121650000Y-111100008D01*
X121650000Y-122299991D01*
X121652402Y-122349252D01*
X121690093Y-122440250D01*
X121759746Y-122509903D01*
X121850750Y-122547597D01*
X121850752Y-122547598D01*
X121949248Y-122547598D01*
X121949249Y-122547597D01*
X122040253Y-122509903D01*
X122109906Y-122440250D01*
X122147597Y-122349252D01*
X122149999Y-122299991D01*
X122150000Y-122299984D01*
X122150000Y-111100016D01*
X122149999Y-111100008D01*
X122147597Y-111050747D01*
X122109906Y-110959749D01*
X122040253Y-110890096D01*
X121949249Y-110852402D01*
X121850750Y-110852402D01*
X121759746Y-110890096D01*
X121690093Y-110959749D01*
X121652402Y-111050747D01*
X121650000Y-111100008D01*
X121250000Y-111100008D01*
X121250000Y-110000000D01*
X87541772Y-110000000D01*
X87474733Y-109980315D01*
X87466742Y-109974724D01*
X81298970Y-105287217D01*
X81257506Y-105230981D01*
X81250000Y-105188493D01*
X81250000Y-103199519D01*
X81269685Y-103132480D01*
X81322489Y-103086725D01*
X81391647Y-103076781D01*
X81449532Y-103103216D01*
X81449596Y-103103121D01*
X81450183Y-103103513D01*
X81455203Y-103105806D01*
X81459241Y-103109566D01*
X81459745Y-103109903D01*
X81550750Y-103147597D01*
X81550752Y-103147598D01*
X81649248Y-103147598D01*
X81649249Y-103147597D01*
X81740253Y-103109903D01*
X81788319Y-103061838D01*
X81849642Y-103028353D01*
X81919334Y-103033337D01*
G37*
M02*
